<svg xmlns="http://www.w3.org/2000/svg" width="900" height="1125" viewBox="0 0 900 1125" role="img" aria-labelledby="title desc">
  <title id="title">Pigtown Sanctuary entrance concept</title>
  <desc id="desc">Stylized entrance concept showing a red brick sanctuary facade, red double doors, crest, awning, windows, steps, and planters.</desc>
  <defs>
    <pattern id="brick" width="52" height="24" patternUnits="userSpaceOnUse">
      <rect width="52" height="24" fill="#8f3f2f"/>
      <path d="M0 0h52M0 24h52M0 12h52M0 0v12M26 12v12M52 0v12" stroke="#6e2d22" stroke-width="2" opacity=".45"/>
    </pattern>
    <linearGradient id="shadow" x1="0" x2="1"><stop offset="0" stop-color="#5f251d"/><stop offset=".5" stop-color="#9a4634"/><stop offset="1" stop-color="#5f251d"/></linearGradient>
    <filter id="softShadow" x="-20%" y="-20%" width="140%" height="140%"><feDropShadow dx="0" dy="12" stdDeviation="12" flood-color="#211a16" flood-opacity=".25"/></filter>
  </defs>
  <rect width="900" height="1125" fill="#d9c2a1"/>
  <rect x="0" y="0" width="900" height="1015" fill="url(#brick)"/>
  <rect x="70" y="0" width="44" height="1015" fill="url(#shadow)" opacity=".75"/>
  <rect x="790" y="0" width="44" height="1015" fill="url(#shadow)" opacity=".75"/>
  <rect x="350" y="0" width="35" height="590" fill="#6e2d22" opacity=".55"/>
  <rect x="515" y="0" width="35" height="590" fill="#6e2d22" opacity=".55"/>
  <g filter="url(#softShadow)">
    <rect x="124" y="80" width="92" height="560" fill="#e8e1d6"/>
    <rect x="140" y="96" width="60" height="528" fill="#627684"/>
    <path d="M170 96v528M140 220h60M140 345h60M140 470h60" stroke="#d7e0e3" stroke-width="5" opacity=".75"/>
    <rect x="684" y="80" width="92" height="560" fill="#e8e1d6"/>
    <rect x="700" y="96" width="60" height="528" fill="#627684"/>
    <path d="M730 96v528M700 220h60M700 345h60M700 470h60" stroke="#d7e0e3" stroke-width="5" opacity=".75"/>
  </g>
  <g filter="url(#softShadow)">
    <path d="M312 472a138 138 0 0 1 276 0v72H312z" fill="#e8e1d6"/>
    <path d="M335 472a115 115 0 0 1 230 0v48H335z" fill="#77736b" opacity=".55"/>
    <path d="M450 360v160M346 470h208M378 420l144 100M522 420L378 520" stroke="#d8d0c2" stroke-width="5" opacity=".65"/>
  </g>
  <g filter="url(#softShadow)">
    <path d="M260 548h380l40 92H220z" fill="#9e3e43"/>
    <path d="M250 640h400v42H250z" fill="#7e2f35"/>
    <path d="M250 682q20 34 40 0q20 34 40 0q20 34 40 0q20 34 40 0q20 34 40 0q20 34 40 0q20 34 40 0q20 34 40 0q20 34 40 0q20 34 40 0" fill="#7e2f35"/>
    <path d="M292 565h316M330 548v85M390 548v85M450 548v85M510 548v85M570 548v85" stroke="#c36970" stroke-width="4" opacity=".7"/>
  </g>
  <g filter="url(#softShadow)">
    <rect x="326" y="690" width="248" height="298" fill="#e9ddc7"/>
    <rect x="342" y="706" width="108" height="266" fill="#9f3432"/>
    <rect x="450" y="706" width="108" height="266" fill="#9f3432"/>
    <path d="M450 706v266" stroke="#581f1d" stroke-width="7"/>
    <circle cx="438" cy="842" r="7" fill="#1d1d1d"/><circle cx="462" cy="842" r="7" fill="#1d1d1d"/>
    <path d="M362 760h70M362 900h70M468 760h70M468 900h70" stroke="#211a16" stroke-width="6" stroke-linecap="round"/>
  </g>
  <g filter="url(#softShadow)">
    <path d="M300 295h300v132H300z" fill="#c99d39"/>
    <path d="M335 320h230v84H335z" fill="#144d76"/>
    <path d="M335 320h115v84H335zM450 320h115" fill="#edc24b" opacity=".92"/>
    <path d="M335 362h230M450 320v84" stroke="#fff2c7" stroke-width="4"/>
    <path d="M390 340l-38 26l38 22M497 338q22 30 2 55q30-5 32-45" fill="none" stroke="#7b2724" stroke-width="10" stroke-linecap="round"/>
    <circle cx="391" cy="378" r="28" fill="none" stroke="#d5b94a" stroke-width="5"/>
    <path d="M470 345h75M470 365h75M470 385h75" stroke="#fff8d8" stroke-width="5" opacity=".9"/>
    <path d="M365 275q85-75 170 0" fill="none" stroke="#e1ad34" stroke-width="28" stroke-linecap="round"/>
    <path d="M386 258q64-52 128 0" fill="none" stroke="#0c6fa5" stroke-width="18" stroke-linecap="round"/>
    <path d="M450 245l32 35l-32 35l-32-35z" fill="#bcc6c8" stroke="#6f777a" stroke-width="4"/>
    <circle cx="330" cy="372" r="38" fill="#8a4a2a"/><circle cx="570" cy="372" r="38" fill="#8a4a2a"/>
    <path d="M292 426h112l-24 38H292zM496 426h112v38H520z" fill="#d0a044"/>
  </g>
  <g filter="url(#softShadow)">
    <rect x="260" y="988" width="380" height="42" fill="#56514b"/>
    <rect x="220" y="1030" width="460" height="42" fill="#6b645d"/>
    <rect x="180" y="1072" width="540" height="38" fill="#5f5851"/>
    <path d="M250 980V845M250 845h34M650 980V845M650 845h-34" stroke="#111" stroke-width="8" fill="none" stroke-linecap="round"/>
  </g>
  <g filter="url(#softShadow)">
    <ellipse cx="208" cy="968" rx="56" ry="78" fill="#d9ba78"/><path d="M186 900q22-80 44 0" fill="#2f662b"/><ellipse cx="692" cy="968" rx="56" ry="78" fill="#d9ba78"/><path d="M670 900q22-80 44 0" fill="#2f662b"/>
  </g>
  <rect x="0" y="1015" width="900" height="110" fill="#c7ae8d" opacity=".9"/>
</svg>