<svg xmlns="http://www.w3.org/2000/svg" viewBox="0 0 900 520"><rect width="900" height="520" fill="#5f241b"/><rect y="370" width="900" height="150" fill="#2f1b13"/><g stroke="#f3cb83" stroke-width="3" opacity=".65"><path d="M85 85c120 55 250 55 380 0s250-55 350 0" fill="none"/><circle cx="95" cy="87" r="7"/><circle cx="170" cy="110" r="7"/><circle cx="245" cy="116" r="7"/><circle cx="320" cy="105" r="7"/><circle cx="395" cy="86" r="7"/><circle cx="470" cy="70" r="7"/><circle cx="545" cy="77" r="7"/><circle cx="620" cy="103" r="7"/><circle cx="695" cy="112" r="7"/><circle cx="770" cy="96" r="7"/></g><rect x="70" y="105" width="75" height="235" rx="36" fill="#edcf8e"/><rect x="745" y="105" width="75" height="235" rx="36" fill="#edcf8e"/><rect x="102" y="122" width="11" height="195" fill="#fff3cf" opacity=".55"/><rect x="777" y="122" width="11" height="195" fill="#fff3cf" opacity=".55"/><rect x="315" y="285" width="270" height="85" rx="8" fill="#7d4c2b"/><rect x="360" y="242" width="180" height="43" rx="6" fill="#1b1110"/><circle cx="410" cy="225" r="28" fill="#d7a15a"/><circle cx="492" cy="225" r="28" fill="#c85c42"/><rect x="385" y="250" width="20" height="60" fill="#24201c"/><rect x="495" y="250" width="20" height="60" fill="#24201c"/><g fill="#25130e"><rect x="170" y="418" width="28" height="60" rx="8"/><rect x="230" y="418" width="28" height="60" rx="8"/><rect x="290" y="418" width="28" height="60" rx="8"/><rect x="590" y="418" width="28" height="60" rx="8"/><rect x="650" y="418" width="28" height="60" rx="8"/><rect x="710" y="418" width="28" height="60" rx="8"/></g><circle cx="805" cy="348" r="36" fill="#5f7d42"/><circle cx="100" cy="355" r="32" fill="#5f7d42"/><text x="55" y="492" fill="#fff4df" font-family="Georgia,serif" font-size="34">Arts and community</text></svg>