<svg xmlns="http://www.w3.org/2000/svg" viewBox="0 0 900 520" role="img" aria-labelledby="t d"><title id="t">Preserved sanctuary gathering room</title><desc id="d">Warm brick adaptive-use hall with piano, plants, chairs, and tall windows.</desc><defs><linearGradient id="g" x1="0" x2="1" y1="0" y2="1"><stop offset="0" stop-color="#7f2b1d"/><stop offset="1" stop-color="#2d120c"/></linearGradient></defs><rect width="900" height="520" fill="url(#g)"/><rect x="0" y="390" width="900" height="130" fill="#4b2c1d"/><g fill="#f4ddaa" opacity=".9"><rect x="70" y="70" width="58" height="250" rx="4"/><rect x="190" y="70" width="58" height="250" rx="4"/><rect x="730" y="75" width="58" height="235" rx="4"/></g><g fill="#ffffff" opacity=".55"><rect x="83" y="84" width="10" height="222"/><rect x="106" y="84" width="10" height="222"/><rect x="203" y="84" width="10" height="222"/><rect x="226" y="84" width="10" height="222"/><rect x="743" y="88" width="10" height="208"/><rect x="766" y="88" width="10" height="208"/></g><path d="M360 390c80-35 150-35 235 0" stroke="#d2b073" stroke-width="9" fill="none" opacity=".8"/><rect x="360" y="300" width="170" height="55" rx="8" fill="#1d1511"/><path d="M520 302c95 15 130 54 115 95H410c-8-48 25-80 110-95z" fill="#0f0c0b"/><g fill="#c79a45"><circle cx="420" cy="425" r="9"/><circle cx="470" cy="425" r="9"/><circle cx="520" cy="425" r="9"/><circle cx="570" cy="425" r="9"/><circle cx="620" cy="425" r="9"/></g><g fill="#20120d"><rect x="330" y="415" width="25" height="55" rx="6"/><rect x="380" y="415" width="25" height="55" rx="6"/><rect x="430" y="415" width="25" height="55" rx="6"/><rect x="480" y="415" width="25" height="55" rx="6"/><rect x="530" y="415" width="25" height="55" rx="6"/><rect x="580" y="415" width="25" height="55" rx="6"/><rect x="630" y="415" width="25" height="55" rx="6"/></g><g fill="#5f7d42"><circle cx="110" cy="355" r="36"/><circle cx="780" cy="350" r="42"/><circle cx="265" cy="365" r="30"/></g><g fill="#dfc38a"><rect x="83" y="375" width="54" height="65" rx="16"/><rect x="753" y="375" width="58" height="70" rx="16"/><rect x="242" y="385" width="45" height="55" rx="14"/></g><text x="58" y="485" fill="#fff4df" font-family="Georgia,serif" font-size="34">Sanctuary as gathering space</text></svg>