<svg xmlns="http://www.w3.org/2000/svg" viewBox="0 0 900 520" role="img" aria-labelledby="t d"><title id="t">Sanctuary gathering space</title><desc id="d">Warm adaptive-use brick room with piano, chairs, plants, and tall windows.</desc><defs><linearGradient id="bg" x1="0" x2="1" y1="0" y2="1"><stop offset="0" stop-color="#7f2b1d"/><stop offset="1" stop-color="#2d120c"/></linearGradient><linearGradient id="floor" x1="0" x2="0" y1="0" y2="1"><stop offset="0" stop-color="#5c3926"/><stop offset="1" stop-color="#2a1710"/></linearGradient></defs><rect width="900" height="520" fill="url(#bg)"/><rect y="380" width="900" height="140" fill="url(#floor)"/><g opacity=".22" stroke="#f5dca8" stroke-width="2"><path d="M0 130h900M0 210h900M0 290h900"/><path d="M90 0v380M210 0v380M330 0v380M690 0v380M810 0v380"/></g><g fill="#f3d99c"><rect x="70" y="70" width="70" height="250" rx="35"/><rect x="185" y="70" width="70" height="250" rx="35"/><rect x="735" y="70" width="70" height="250" rx="35"/></g><g fill="#fff8df" opacity=".55"><rect x="99" y="86" width="12" height="218"/><rect x="214" y="86" width="12" height="218"/><rect x="764" y="86" width="12" height="218"/></g><path d="M345 385c75-32 165-32 245 0" stroke="#cfaa64" stroke-width="10" fill="none" opacity=".9"/><path d="M455 294c95 8 150 45 152 90H365c0-55 36-84 90-90z" fill="#111"/><rect x="365" y="317" width="155" height="48" rx="8" fill="#21130e"/><g fill="#25130e"><rect x="295" y="417" width="28" height="62" rx="8"/><rect x="345" y="417" width="28" height="62" rx="8"/><rect x="395" y="417" width="28" height="62" rx="8"/><rect x="545" y="417" width="28" height="62" rx="8"/><rect x="595" y="417" width="28" height="62" rx="8"/><rect x="645" y="417" width="28" height="62" rx="8"/></g><g fill="#5f7d42"><circle cx="120" cy="350" r="38"/><circle cx="775" cy="350" r="42"/><circle cx="250" cy="362" r="28"/></g><g fill="#d8ba78"><rect x="93" y="380" width="54" height="70" rx="14"/><rect x="748" y="382" width="58" height="72" rx="14"/><rect x="228" y="388" width="44" height="58" rx="12"/></g><text x="55" y="492" fill="#fff4df" font-family="Georgia,serif" font-size="32">Sanctuary as gathering space</text></svg>