<svg xmlns="http://www.w3.org/2000/svg" viewBox="0 0 900 520"><rect width="900" height="520" fill="#6f2a1e"/><rect y="360" width="900" height="160" fill="#3b2418"/><rect x="120" y="330" width="660" height="85" rx="10" fill="#8a5a33"/><rect x="85" y="80" width="80" height="235" rx="38" fill="#f0d59a"/><rect x="205" y="80" width="80" height="235" rx="38" fill="#f0d59a"/><rect x="735" y="80" width="80" height="235" rx="38" fill="#f0d59a"/><rect x="115" y="95" width="12" height="205" fill="#fff4d2" opacity=".55"/><rect x="235" y="95" width="12" height="205" fill="#fff4d2" opacity=".55"/><rect x="765" y="95" width="12" height="205" fill="#fff4d2" opacity=".55"/><path d="M220 325l45-70 45 70z" fill="#f3cf7a" stroke="#24130d" stroke-width="5"/><path d="M560 325l45-70 45 70z" fill="#f3cf7a" stroke="#24130d" stroke-width="5"/><rect x="390" y="285" width="45" height="45" fill="#6e9a79"/><rect x="445" y="285" width="45" height="45" fill="#c85c42"/><rect x="500" y="285" width="45" height="45" fill="#e0b95f"/><circle cx="805" cy="345" r="38" fill="#5f7d42"/><circle cx="75" cy="352" r="32" fill="#5f7d42"/><text x="55" y="492" fill="#fff4df" font-family="Georgia,serif" font-size="34">Family and workshops</text></svg>